<svg xmlns="http://www.w3.org/2000/svg" viewBox="42 40 168 120">
  <!-- Atticus: mockingbird mark, forest green (#2B5940) on transparent. -->
  <path fill-rule="evenodd" fill="#2B5940" d="M 46 71 C 56 68, 66 64, 74 60 C 80 50, 94 50, 100 58 C 104 63, 105 68, 105 72 C 119 76, 132 81, 143 88 C 161 73, 183 58, 198 47 C 204 43, 208 47, 204 52 C 190 66, 173 84, 159 97 C 155 107, 147 116, 137 122 C 128 128, 116 130.5, 106 129.5 C 90 127.5, 76 113, 69 97 C 67 90, 70 82, 72 76 C 62 74, 54 72.5, 46 71 Z M 88 62 a 2.8 2.8 0 1 0 0.1 0 Z M 113 91 C 123 87.5, 135 90, 142 97 C 135 102.5, 122 102, 114 97 C 111 95, 110 92, 113 91 Z"/>
  <path stroke="#2B5940" stroke-width="2.6" stroke-linecap="round" fill="none" d="M 100 128 L 97 148 M 111 129 L 111 148"/>
  <path stroke="#2B5940" stroke-width="2.6" d="M 38 151 H 202"/>
  <path stroke="#2B5940" stroke-width="1" opacity="0.55" d="M 38 157 H 202"/>
</svg>
